<svg id="圖層_1" data-name="圖層 1" xmlns="http://www.w3.org/2000/svg" viewBox="0 0 366.5 328.55"><defs><style>.cls-1{fill:#231815;}.cls-2{fill:none;stroke:#231815;stroke-miterlimit:10;stroke-width:14px;}</style></defs><path class="cls-1" d="M239.61,30.08" transform="translate(-6.39 -9.22)"/><path class="cls-2" d="M365.53,160.58c-8.26-94-102.77-104.31-102.77-104.31L262,56.1c-9.16-25.45-40.05-14-40.05-14s-8.7-24.83-27.7-25.81S165.4,37.9,165.4,37.9c-36-.55-38.53,16.9-38.53,16.9C7.4,79,13.59,171.33,13.59,171.33,7.86,293.67,123.76,321.24,123.76,321.24c58.45,20.58,133.57,1.44,133.57,1.44C377.86,285.49,365.53,160.58,365.53,160.58Z" transform="translate(-6.39 -9.22)"/><path class="cls-1" d="M261.61,61.47,248.14,48.29s1.35,3.85-.3,6.27-20.94,6.61-20.77,23.19c0,0,7.14,15.16.16,17.4a33.84,33.84,0,0,1-22.11-4.41s-16.05-6.21-30.65,3.72c0,0-22.8,7-13.91-10.82,0,0,3.2-17.59-6.5-21.52,0,0-6.45-2.91-9.45-6.59l-.86-.18a4.6,4.6,0,0,1-.56-.19L129.89,60s3.28,10.86,12.24,11.89c0,0,9-1.45,1.08,14.23,0,0-3.16,35.22,43.07,20.88,0,0,9.68-8.56,20.7,1.46,0,0,24.35,7.07,37.8-7,0,0,7.25-12.29-1.28-24.14Z" transform="translate(-6.39 -9.22)"/><path class="cls-1" d="M138,49.79s7.65,5.82,7.46,7.16-12.72,2.64-12.72,2.64l-1.89-7.38Z" transform="translate(-6.39 -9.22)"/><path class="cls-1" d="M61.92,123.24s28-37.73,44.94-27.35c0,0,7.26,3.91-1.22,11.12,0,0-26.8,11.6-28,21,0,0-4.2,7.61-11.36,5.33S63.11,120.93,61.92,123.24Z" transform="translate(-6.39 -9.22)"/><path class="cls-1" d="M59.16,137.55a6.61,6.61,0,0,0-4.45,2,9.21,9.21,0,0,0-2.16,4.65c-.41,2-.72,3.95-1.08,5.92a15.63,15.63,0,0,0-.41,5.61c.67,3.7,4.29,5.45,7.77,4.76A11.64,11.64,0,0,0,64,158.15c1.28-1.17,1.89-3.21,2.34-4.83,1-3.41,1.57-7.76.38-11.18a7,7,0,0,0-7.59-5,7,7,0,0,0-4.69,2,11.14,11.14,0,0,0-2.32,4.74,51.64,51.64,0,0,0-1.32,5.89c-.29,1.87-.71,4,0,5.81a4.26,4.26,0,0,0,4.36,3c2.08-.06,3.13-1.34,3.37-3.32a55.05,55.05,0,0,0,.14-6.8c0-2.25.3-4.72-.19-6.92a1.51,1.51,0,0,0-2.89,0,77.22,77.22,0,0,0-2.2,12.26,5.88,5.88,0,0,0-.11,2.82c.37.88,1.54,1.17,2.37,1.43a6,6,0,0,0,5.08-.38c3-2,4.07-6.37,4.07-9.72a19.24,19.24,0,0,0-1-5.83c-.6-1.87-1.42-3.1-3.52-3.19-1.08,0-2.35-.05-3,1s-.23,1.9-.07,2.83a34.59,34.59,0,0,1,.18,6.75c-.06,1.65,2.64,2.09,2.94.4a58.51,58.51,0,0,0,.78-6.45c.12-1.93-2.88-1.92-3,0a50.92,50.92,0,0,1-.67,5.65l2.95.4c.05-1.51.1-3,0-4.53,0-.76-.11-1.52-.21-2.27a7.57,7.57,0,0,1-.23-1.82l-.2.75c-.44.32-.41.43.1.33h.68a5.36,5.36,0,0,0,.23.62,19.65,19.65,0,0,1,.68,2.5,13.51,13.51,0,0,1,.07,5.3,8.57,8.57,0,0,1-2.07,4.46c-1.06,1-3,.68-4.1-.07l.74,1.29a15.11,15.11,0,0,1,.4-3.45c.15-1.15.3-2.31.48-3.47a47.56,47.56,0,0,1,1.45-6.78H55.6a19.43,19.43,0,0,1,.09,4.11v4.82c0,.67,0,1.34,0,2s-.21,1.44-.17,2.09c0,0-.17.39,0,.21s-.39,0-.49,0c-.72,0-.9-.08-1.24-.72a6.4,6.4,0,0,1-.18-3.78,42.8,42.8,0,0,1,.91-4.59c.55-2.22,1-5.55,3.63-6.26,2.27-.62,4.4-.1,5.47,2.1,1.14,2.36.75,5.52.31,8a19.88,19.88,0,0,1-1,3.79,6.38,6.38,0,0,1-.73,1.51,4.45,4.45,0,0,1-1.66,1c-2,.93-5.19,1.73-6.3-.9-.57-1.35-.17-3,.07-4.35l.84-4.65a13.78,13.78,0,0,1,1.17-4.4,3.59,3.59,0,0,1,2.89-1.88c1.93,0,1.93-3,0-3Z" transform="translate(-6.39 -9.22)"/><path class="cls-1" d="M61.83,144.91v-.62a1.15,1.15,0,0,0-.13-.58,1.11,1.11,0,0,0-.31-.48,1.14,1.14,0,0,0-.48-.31,1.08,1.08,0,0,0-.58-.13l-.4.05a1.39,1.39,0,0,0-.66.39l-.24.3a1.54,1.54,0,0,0-.2.76v.62a1.14,1.14,0,0,0,.13.57,1.11,1.11,0,0,0,.31.49,1.24,1.24,0,0,0,.48.31,1.27,1.27,0,0,0,.58.13l.4-.06a1.57,1.57,0,0,0,.66-.38l.24-.31a1.5,1.5,0,0,0,.2-.75Z" transform="translate(-6.39 -9.22)"/><path class="cls-1" d="M58.29,142a22.66,22.66,0,0,0,1.12,3,13.12,13.12,0,0,1,.64,3,6.34,6.34,0,0,1-.21,2.84,7.15,7.15,0,0,1-.67,1.21l-.39.54-.17.23c-.24.25-.1.21.42-.1l.76.2c.09.05.14.29,0-.13l-.16-.36a5.21,5.21,0,0,1-.27-1,4.17,4.17,0,0,1,0-1.06c0-.13.09-.26.11-.39.06-.37.38-.08-.24.07h-.8c-.67-.17-.35-.41-.31,0,0,.19.13.39.17.58a4.1,4.1,0,0,1,.07,1.11,3.43,3.43,0,0,1-.57,1.8l.67-.38-.15.06h.8l-.12,0,.9.69c0,.06,0,.31,0-.11a2,2,0,0,1,0-.42,2.47,2.47,0,0,1,.36-1c1-1.65-1.59-3.16-2.59-1.51A5.07,5.07,0,0,0,57,154.8,1.73,1.73,0,0,0,59.14,156a2.75,2.75,0,0,0,1.55-1.73,7,7,0,0,0,.55-3.92c-.2-1.4-.88-3.43-2.65-3.25-1.61.16-2.22,2.08-2.29,3.45a7.3,7.3,0,0,0,1.06,4.1,2.15,2.15,0,0,0,2,1.06c.88-.1,1.35-.77,1.84-1.42A8.35,8.35,0,0,0,63,150.66a13.31,13.31,0,0,0-.26-4.95,15.33,15.33,0,0,0-.69-2.28,11.79,11.79,0,0,1-.83-2.21,1.52,1.52,0,0,0-1.85-1.05A1.54,1.54,0,0,0,58.29,142Z" transform="translate(-6.39 -9.22)"/><path class="cls-1" d="M261.08,61.86c3.22,0,3.22-5,0-5s-3.22,5,0,5Z" transform="translate(-6.39 -9.22)"/><path class="cls-1" d="M259.31,61.46c3.22,0,3.22-5,0-5s-3.22,5,0,5Z" transform="translate(-6.39 -9.22)"/><path class="cls-1" d="M261.33,57.41l-.05-.19a1.89,1.89,0,0,0-.45-.85,1.83,1.83,0,0,0-.7-.65,2.88,2.88,0,0,0-1.92-.25l-.6.25a2.5,2.5,0,0,0-.9.9l-.25.6a2.5,2.5,0,0,0,0,1.33l.05.19a1.8,1.8,0,0,0,.45.85,1.83,1.83,0,0,0,.7.65,1.79,1.79,0,0,0,.93.29,1.85,1.85,0,0,0,1,0l.6-.25a2.5,2.5,0,0,0,.9-.9l.25-.6a2.5,2.5,0,0,0,0-1.33Z" transform="translate(-6.39 -9.22)"/></svg>